<?xml version="1.0" encoding="utf-8"?>
<!-- Generator: Adobe Illustrator 15.0.0, SVG Export Plug-In . SVG Version: 6.00 Build 0)  -->
<!DOCTYPE svg PUBLIC "-//W3C//DTD SVG 1.1//EN" "http://www.w3.org/Graphics/SVG/1.1/DTD/svg11.dtd">
<svg version="1.1" id="Calque_1" xmlns="http://www.w3.org/2000/svg" xmlns:xlink="http://www.w3.org/1999/xlink" x="0px" y="0px"
	 width="29.481px" height="40.659px" viewBox="0 0 29.481 40.659" enable-background="new 0 0 29.481 40.659" xml:space="preserve">
<path fill="#FFFFFF" d="M19.423,1.089C17.949,0.388,16.371,0,14.739,0c-1.631,0-3.209,0.388-4.683,1.089
	C6.16,2.399,2.991,5.292,1.312,9.005C1.278,9.081,1.237,9.152,1.205,9.228C0.433,11.016,0,12.984,0,15.053v5.686v1.26l0.169,0.188
	c3.411,3.793,7.051,6.132,10.858,6.999v1.597H7.163c-3.016,0-5.926,4.29-5.926,9.636h26.705c0-5.347-2.91-9.636-5.923-9.636h-2.992
	v-1.897c6.055-1.787,10.088-6.47,10.295-6.714l0.156-0.185l0.003-6.935C29.481,8.563,25.26,3.052,19.423,1.089z M18.027,27.625
	c-0.573,0.226-1.17,0.386-1.782,0.492c-0.565,0.074-1.14,0.125-1.729,0.13c-0.859-0.021-1.691-0.17-2.488-0.424
	c-0.341-0.109-0.674-0.236-1-0.384c-0.275-0.125-0.545-0.262-0.809-0.413c-0.721-0.41-1.396-0.91-2.016-1.497
	c-1.514-1.434-2.685-3.352-3.362-5.558c0.613,0.038,1.229,0.059,1.84,0.059c8.478,0,15.151-3.508,18.551-5.748
	c0.04,0.447,0.063,0.899,0.063,1.358c0,3.786-1.409,7.18-3.625,9.495c-0.539,0.562-1.123,1.063-1.75,1.487
	c-0.289,0.196-0.587,0.375-0.893,0.538C18.702,27.335,18.369,27.491,18.027,27.625C18.027,27.625,18.027,27.625,18.027,27.625z
	 M18.027,30.783v0.373c0,1.311-1.317,2.337-2.998,2.337c-1.684,0-3.002-1.026-3.002-2.337v-0.373v-1.404v-0.55
	c0.871,0.25,1.776,0.396,2.712,0.396c1.143,0,2.245-0.204,3.288-0.571v0.483V30.783z"/>
</svg>
